<svg version="1.1" xmlns="http://www.w3.org/2000/svg" xmlns:xlink="http://www.w3.org/1999/xlink" width="1460" height="565"><defs/><g><g transform="translate(-150,-38) scale(1,1)"><rect fill="#C0C0C0" stroke="none" x="551" y="55" width="367.16162109375" height="246" opacity="0.2"/></g><g transform="translate(-150,-38) scale(1,1)"><rect fill="#662020" stroke="none" x="544" y="48" width="367.16162109375" height="246"/></g><g transform="translate(-150,-38) scale(1,1)"><path fill="none" stroke="#808080" d="M 544 48 L 911.16162109375 48 L 911.16162109375 294 L 544 294 L 544 48 Z Z" stroke-miterlimit="10"/></g><g transform="translate(-150,-38) scale(1,1)"><path fill="none" stroke="#808080" d="M 544 75 L 911.16162109375 75" stroke-miterlimit="10"/></g><g transform="translate(-150,-38) scale(1,1)"><path fill="none" stroke="#808080" d="M 544 185 L 911.16162109375 185" stroke-miterlimit="10"/></g><g transform="translate(-150,-38) scale(1,1)"><g><path fill="none" stroke="none"/><text fill="#e0e0e0" stroke="none" font-family="Arial" font-size="15px" font-style="normal" font-weight="bold" text-decoration="none" x="701.72265625" y="69.5">Bangun</text></g></g><g transform="translate(-150,-38) scale(1,1)"><g><path fill="none" stroke="none"/><text fill="#e0e0e0" stroke="none" font-family="Arial" font-size="15px" font-style="normal" font-weight="normal" text-decoration="none" x="549" y="94.5">#nilaiA: double</text></g></g><g transform="translate(-150,-38) scale(1,1)"><g><path fill="none" stroke="none"/><text fill="#e0e0e0" stroke="none" font-family="Arial" font-size="15px" font-style="normal" font-weight="normal" text-decoration="none" x="549" y="111.5">#nilaiB: double</text></g></g><g transform="translate(-150,-38) scale(1,1)"><g><path fill="none" stroke="none"/><text fill="#e0e0e0" stroke="none" font-family="Arial" font-size="15px" font-style="normal" font-weight="normal" text-decoration="none" x="549" y="128.5">#nilaiC: double</text></g></g><g transform="translate(-150,-38) scale(1,1)"><g><path fill="none" stroke="none"/><text fill="#e0e0e0" stroke="none" font-family="Arial" font-size="15px" font-style="normal" font-weight="normal" text-decoration="none" x="549" y="145.5">#luas: double</text></g></g><g transform="translate(-150,-38) scale(1,1)"><g><path fill="none" stroke="none"/><text fill="#e0e0e0" stroke="none" font-family="Arial" font-size="15px" font-style="normal" font-weight="normal" text-decoration="none" x="549" y="162.5">#volume: double</text></g></g><g transform="translate(-150,-38) scale(1,1)"><g><path fill="none" stroke="none"/><text fill="#e0e0e0" stroke="none" font-family="Arial" font-size="15px" font-style="normal" font-weight="normal" text-decoration="none" x="549" y="179.5">#namaBangun: String</text></g></g><g transform="translate(-150,-38) scale(1,1)"><g><path fill="none" stroke="none"/><text fill="#e0e0e0" stroke="none" font-family="Arial" font-size="15px" font-style="normal" font-weight="normal" text-decoration="none" x="549" y="204.5">+Bangun(nilaiA: double)</text></g></g><g transform="translate(-150,-38) scale(1,1)"><g><path fill="none" stroke="none"/><text fill="#e0e0e0" stroke="none" font-family="Arial" font-size="15px" font-style="normal" font-weight="normal" text-decoration="none" x="549" y="221.5">+Bangun(nilaiA: double, nilaiB: double)</text></g></g><g transform="translate(-150,-38) scale(1,1)"><g><path fill="none" stroke="none"/><text fill="#e0e0e0" stroke="none" font-family="Arial" font-size="15px" font-style="normal" font-weight="normal" text-decoration="none" x="549" y="238.5">+Bangun(nilaiA: double, nilaiB: double, nilaiC: double)</text></g></g><g transform="translate(-150,-38) scale(1,1)"><g><path fill="none" stroke="none"/><text fill="#e0e0e0" stroke="none" font-family="Arial" font-size="15px" font-style="normal" font-weight="normal" text-decoration="none" x="549" y="255.5">+getVolume(): double</text></g></g><g transform="translate(-150,-38) scale(1,1)"><g><path fill="none" stroke="none"/><text fill="#e0e0e0" stroke="none" font-family="Arial" font-size="15px" font-style="normal" font-weight="normal" text-decoration="none" x="549" y="272.5">+getLuas(): double</text></g></g><g transform="translate(-150,-38) scale(1,1)"><g><path fill="none" stroke="none"/><text fill="#e0e0e0" stroke="none" font-family="Arial" font-size="15px" font-style="normal" font-weight="normal" text-decoration="none" x="549" y="289.5">+getName(): String</text></g></g><g transform="translate(-150,-38) scale(1,1)"><rect fill="#C0C0C0" stroke="none" x="199" y="415" width="152.84033203125" height="57" opacity="0.2"/></g><g transform="translate(-150,-38) scale(1,1)"><rect fill="#ff8282" stroke="none" x="192" y="408" width="152.84033203125" height="57"/></g><g transform="translate(-150,-38) scale(1,1)"><path fill="none" stroke="#000000" d="M 192 408 L 344.84033203125 408 L 344.84033203125 465 L 192 465 L 192 408 Z Z" stroke-miterlimit="10"/></g><g transform="translate(-150,-38) scale(1,1)"><path fill="none" stroke="#000000" d="M 192 433 L 344.84033203125 433" stroke-miterlimit="10"/></g><g transform="translate(-150,-38) scale(1,1)"><path fill="none" stroke="#000000" d="M 192 443 L 344.84033203125 443" stroke-miterlimit="10"/></g><g transform="translate(-150,-38) scale(1,1)"><g><path fill="none" stroke="none"/><text fill="#000000" stroke="none" font-family="Arial" font-size="13px" font-style="normal" font-weight="bold" text-decoration="none" x="246.381103515625" y="427.5">Persegi</text></g></g><g transform="translate(-150,-38) scale(1,1)"><g><path fill="none" stroke="none"/><text fill="#000000" stroke="none" font-family="Arial" font-size="13px" font-style="normal" font-weight="normal" text-decoration="none" x="197" y="460.5">+getLuas(): double</text></g></g><g transform="translate(-150,-38) scale(1,1)"><path fill="none" stroke="#000000" d="M 268 408 L 268 328 L 728 328 L 728 294" stroke-miterlimit="10"/></g><g transform="translate(-150,-38) scale(1,1)"><path fill="#FFFFFF" stroke="none" d="M 736.419035512032 314.3253497152483 L 728 294 L 719.580964487968 314.3253497152483"/></g><g transform="translate(-150,-38) scale(1,1)"><path fill="none" stroke="#000000" d="M 736.419035512032 314.3253497152483 L 728 294 L 719.580964487968 314.3253497152483 L 736.419035512032 314.3253497152483" stroke-miterlimit="10"/></g><g transform="translate(-150,-38) scale(1,1)"><rect fill="#C0C0C0" stroke="none" x="431" y="415" width="160" height="58" opacity="0.2"/></g><g transform="translate(-150,-38) scale(1,1)"><rect fill="#9bff38" stroke="none" x="424" y="408" width="160" height="58"/></g><g transform="translate(-150,-38) scale(1,1)"><path fill="none" stroke="#000000" d="M 424 408 L 584 408 L 584 466 L 424 466 L 424 408 Z Z" stroke-miterlimit="10"/></g><g transform="translate(-150,-38) scale(1,1)"><path fill="none" stroke="#000000" d="M 424 433 L 584 433" stroke-miterlimit="10"/></g><g transform="translate(-150,-38) scale(1,1)"><path fill="none" stroke="#000000" d="M 424 443 L 584 443" stroke-miterlimit="10"/></g><g transform="translate(-150,-38) scale(1,1)"><g><path fill="none" stroke="none"/><text fill="#000000" stroke="none" font-family="Arial" font-size="13px" font-style="normal" font-weight="bold" text-decoration="none" x="458.1064453125" y="427.5">PersegiPanjang</text></g></g><g transform="translate(-150,-38) scale(1,1)"><g><path fill="none" stroke="none"/><text fill="#000000" stroke="none" font-family="Arial" font-size="13px" font-style="normal" font-weight="normal" text-decoration="none" x="429" y="460.5">+getLuas(): double</text></g></g><g transform="translate(-150,-38) scale(1,1)"><path fill="none" stroke="#000000" d="M 504 408 L 504 328 L 728 328 L 728 294" stroke-miterlimit="10"/></g><g transform="translate(-150,-38) scale(1,1)"><path fill="#FFFFFF" stroke="none" d="M 736.419035512032 314.3253497152483 L 728 294 L 719.580964487968 314.3253497152483"/></g><g transform="translate(-150,-38) scale(1,1)"><path fill="none" stroke="#000000" d="M 736.419035512032 314.3253497152483 L 728 294 L 719.580964487968 314.3253497152483 L 736.419035512032 314.3253497152483" stroke-miterlimit="10"/></g><g transform="translate(-150,-38) scale(1,1)"><rect fill="#C0C0C0" stroke="none" x="199" y="543" width="152" height="57" opacity="0.2"/></g><g transform="translate(-150,-38) scale(1,1)"><rect fill="#ff8282" stroke="none" x="192" y="536" width="152" height="57"/></g><g transform="translate(-150,-38) scale(1,1)"><path fill="none" stroke="#000000" d="M 192 536 L 344 536 L 344 593 L 192 593 L 192 536 Z Z" stroke-miterlimit="10"/></g><g transform="translate(-150,-38) scale(1,1)"><path fill="none" stroke="#000000" d="M 192 561 L 344 561" stroke-miterlimit="10"/></g><g transform="translate(-150,-38) scale(1,1)"><path fill="none" stroke="#000000" d="M 192 571 L 344 571" stroke-miterlimit="10"/></g><g transform="translate(-150,-38) scale(1,1)"><g><path fill="none" stroke="none"/><text fill="#000000" stroke="none" font-family="Arial" font-size="13px" font-style="normal" font-weight="bold" text-decoration="none" x="249.569580078125" y="555.5">Kubus</text></g></g><g transform="translate(-150,-38) scale(1,1)"><g><path fill="none" stroke="none"/><text fill="#000000" stroke="none" font-family="Arial" font-size="13px" font-style="normal" font-weight="normal" text-decoration="none" x="197" y="588.5">+getVolume(): double</text></g></g><g transform="translate(-150,-38) scale(1,1)"><path fill="none" stroke="#000000" d="M 264 536 L 264 465" stroke-miterlimit="10"/></g><g transform="translate(-150,-38) scale(1,1)"><path fill="#FFFFFF" stroke="none" d="M 272.419035512032 485.3253497152483 L 264 465 L 255.58096448796803 485.3253497152483"/></g><g transform="translate(-150,-38) scale(1,1)"><path fill="none" stroke="#000000" d="M 272.419035512032 485.3253497152483 L 264 465 L 255.58096448796803 485.3253497152483 L 272.419035512032 485.3253497152483" stroke-miterlimit="10"/></g><g transform="translate(-150,-38) scale(1,1)"><rect fill="#C0C0C0" stroke="none" x="359" y="543" width="160" height="57" opacity="0.2"/></g><g transform="translate(-150,-38) scale(1,1)"><rect fill="#9bff38" stroke="none" x="352" y="536" width="160" height="57"/></g><g transform="translate(-150,-38) scale(1,1)"><path fill="none" stroke="#000000" d="M 352 536 L 512 536 L 512 593 L 352 593 L 352 536 Z Z" stroke-miterlimit="10"/></g><g transform="translate(-150,-38) scale(1,1)"><path fill="none" stroke="#000000" d="M 352 561 L 512 561" stroke-miterlimit="10"/></g><g transform="translate(-150,-38) scale(1,1)"><path fill="none" stroke="#000000" d="M 352 571 L 512 571" stroke-miterlimit="10"/></g><g transform="translate(-150,-38) scale(1,1)"><g><path fill="none" stroke="none"/><text fill="#000000" stroke="none" font-family="Arial" font-size="13px" font-style="normal" font-weight="bold" text-decoration="none" x="415.740478515625" y="555.5">Balok</text></g></g><g transform="translate(-150,-38) scale(1,1)"><g><path fill="none" stroke="none"/><text fill="#000000" stroke="none" font-family="Arial" font-size="13px" font-style="normal" font-weight="normal" text-decoration="none" x="357" y="588.5">+getVolume(): double</text></g></g><g transform="translate(-150,-38) scale(1,1)"><path fill="none" stroke="#000000" d="M 432 536 L 432 512 L 507 512 L 507 466" stroke-miterlimit="10"/></g><g transform="translate(-150,-38) scale(1,1)"><path fill="#FFFFFF" stroke="none" d="M 515.419035512032 486.3253497152483 L 507 466 L 498.580964487968 486.3253497152483"/></g><g transform="translate(-150,-38) scale(1,1)"><path fill="none" stroke="#000000" d="M 515.419035512032 486.3253497152483 L 507 466 L 498.580964487968 486.3253497152483 L 515.419035512032 486.3253497152483" stroke-miterlimit="10"/></g><g transform="translate(-150,-38) scale(1,1)"><rect fill="#C0C0C0" stroke="none" x="751" y="415" width="120" height="57" opacity="0.2"/></g><g transform="translate(-150,-38) scale(1,1)"><rect fill="#6dceff" stroke="none" x="744" y="408" width="120" height="57"/></g><g transform="translate(-150,-38) scale(1,1)"><path fill="none" stroke="#000000" d="M 744 408 L 864 408 L 864 465 L 744 465 L 744 408 Z Z" stroke-miterlimit="10"/></g><g transform="translate(-150,-38) scale(1,1)"><path fill="none" stroke="#000000" d="M 744 433 L 864 433" stroke-miterlimit="10"/></g><g transform="translate(-150,-38) scale(1,1)"><path fill="none" stroke="#000000" d="M 744 443 L 864 443" stroke-miterlimit="10"/></g><g transform="translate(-150,-38) scale(1,1)"><g><path fill="none" stroke="none"/><text fill="#000000" stroke="none" font-family="Arial" font-size="13px" font-style="normal" font-weight="bold" text-decoration="none" x="780.510498046875" y="427.5">Segitiga</text></g></g><g transform="translate(-150,-38) scale(1,1)"><g><path fill="none" stroke="none"/><text fill="#000000" stroke="none" font-family="Arial" font-size="13px" font-style="normal" font-weight="normal" text-decoration="none" x="749" y="460.5">+getLuas(): double</text></g></g><g transform="translate(-150,-38) scale(1,1)"><path fill="none" stroke="#000000" d="M 800 408 L 800 328 L 728 328 L 728 294" stroke-miterlimit="10"/></g><g transform="translate(-150,-38) scale(1,1)"><path fill="#FFFFFF" stroke="none" d="M 736.419035512032 314.3253497152483 L 728 294 L 719.580964487968 314.3253497152483"/></g><g transform="translate(-150,-38) scale(1,1)"><path fill="none" stroke="#000000" d="M 736.419035512032 314.3253497152483 L 728 294 L 719.580964487968 314.3253497152483 L 736.419035512032 314.3253497152483" stroke-miterlimit="10"/></g><g transform="translate(-150,-38) scale(1,1)"><rect fill="#C0C0C0" stroke="none" x="679" y="543" width="133.66162109375" height="57" opacity="0.2"/></g><g transform="translate(-150,-38) scale(1,1)"><rect fill="#6dceff" stroke="none" x="672" y="536" width="133.66162109375" height="57"/></g><g transform="translate(-150,-38) scale(1,1)"><path fill="none" stroke="#000000" d="M 672 536 L 805.66162109375 536 L 805.66162109375 593 L 672 593 L 672 536 Z Z" stroke-miterlimit="10"/></g><g transform="translate(-150,-38) scale(1,1)"><path fill="none" stroke="#000000" d="M 672 561 L 805.66162109375 561" stroke-miterlimit="10"/></g><g transform="translate(-150,-38) scale(1,1)"><path fill="none" stroke="#000000" d="M 672 571 L 805.66162109375 571" stroke-miterlimit="10"/></g><g transform="translate(-150,-38) scale(1,1)"><g><path fill="none" stroke="none"/><text fill="#000000" stroke="none" font-family="Arial" font-size="13px" font-style="normal" font-weight="bold" text-decoration="none" x="695.11767578125" y="555.5">PrismaSegitiga</text></g></g><g transform="translate(-150,-38) scale(1,1)"><g><path fill="none" stroke="none"/><text fill="#000000" stroke="none" font-family="Arial" font-size="13px" font-style="normal" font-weight="normal" text-decoration="none" x="677" y="588.5">+getVolume(): double</text></g></g><g transform="translate(-150,-38) scale(1,1)"><path fill="none" stroke="#000000" d="M 736 536 L 736 512 L 806 512 L 806 465" stroke-miterlimit="10"/></g><g transform="translate(-150,-38) scale(1,1)"><path fill="#FFFFFF" stroke="none" d="M 814.419035512032 485.3253497152483 L 806 465 L 797.580964487968 485.3253497152483"/></g><g transform="translate(-150,-38) scale(1,1)"><path fill="none" stroke="#000000" d="M 814.419035512032 485.3253497152483 L 806 465 L 797.580964487968 485.3253497152483 L 814.419035512032 485.3253497152483" stroke-miterlimit="10"/></g><g transform="translate(-150,-38) scale(1,1)"><rect fill="#C0C0C0" stroke="none" x="527" y="543" width="142" height="57" opacity="0.2"/></g><g transform="translate(-150,-38) scale(1,1)"><rect fill="#b6ff6d" stroke="none" x="520" y="536" width="142" height="57"/></g><g transform="translate(-150,-38) scale(1,1)"><path fill="none" stroke="#000000" d="M 520 536 L 662 536 L 662 593 L 520 593 L 520 536 Z Z" stroke-miterlimit="10"/></g><g transform="translate(-150,-38) scale(1,1)"><path fill="none" stroke="#000000" d="M 520 561 L 662 561" stroke-miterlimit="10"/></g><g transform="translate(-150,-38) scale(1,1)"><path fill="none" stroke="#000000" d="M 520 571 L 662 571" stroke-miterlimit="10"/></g><g transform="translate(-150,-38) scale(1,1)"><g><path fill="none" stroke="none"/><text fill="#000000" stroke="none" font-family="Arial" font-size="13px" font-style="normal" font-weight="bold" text-decoration="none" x="542.58642578125" y="555.5">LimasSegiempat</text></g></g><g transform="translate(-150,-38) scale(1,1)"><g><path fill="none" stroke="none"/><text fill="#000000" stroke="none" font-family="Arial" font-size="13px" font-style="normal" font-weight="normal" text-decoration="none" x="525" y="588.5">+getVolume(): double</text></g></g><g transform="translate(-150,-38) scale(1,1)"><path fill="none" stroke="#000000" d="M 592 536 L 592 512 L 507 512 L 507 466" stroke-miterlimit="10"/></g><g transform="translate(-150,-38) scale(1,1)"><path fill="#FFFFFF" stroke="none" d="M 515.419035512032 486.3253497152483 L 507 466 L 498.580964487968 486.3253497152483"/></g><g transform="translate(-150,-38) scale(1,1)"><path fill="none" stroke="#000000" d="M 515.419035512032 486.3253497152483 L 507 466 L 498.580964487968 486.3253497152483 L 515.419035512032 486.3253497152483" stroke-miterlimit="10"/></g><g transform="translate(-150,-38) scale(1,1)"><rect fill="#C0C0C0" stroke="none" x="822.66162109375" y="543" width="133.66162109375" height="57" opacity="0.2"/></g><g transform="translate(-150,-38) scale(1,1)"><rect fill="#6dceff" stroke="none" x="815.66162109375" y="536" width="133.66162109375" height="57"/></g><g transform="translate(-150,-38) scale(1,1)"><path fill="none" stroke="#000000" d="M 815.66162109375 536 L 949.3232421875 536 L 949.3232421875 593 L 815.66162109375 593 L 815.66162109375 536 Z Z" stroke-miterlimit="10"/></g><g transform="translate(-150,-38) scale(1,1)"><path fill="none" stroke="#000000" d="M 815.66162109375 561 L 949.3232421875 561" stroke-miterlimit="10"/></g><g transform="translate(-150,-38) scale(1,1)"><path fill="none" stroke="#000000" d="M 815.66162109375 571 L 949.3232421875 571" stroke-miterlimit="10"/></g><g transform="translate(-150,-38) scale(1,1)"><g><path fill="none" stroke="none"/><text fill="#000000" stroke="none" font-family="Arial" font-size="13px" font-style="normal" font-weight="bold" text-decoration="none" x="841.664306640625" y="555.5">LimasSegitiga</text></g></g><g transform="translate(-150,-38) scale(1,1)"><g><path fill="none" stroke="none"/><text fill="#000000" stroke="none" font-family="Arial" font-size="13px" font-style="normal" font-weight="normal" text-decoration="none" x="820.66162109375" y="588.5">+getVolume(): double</text></g></g><g transform="translate(-150,-38) scale(1,1)"><path fill="none" stroke="#000000" d="M 880 536 L 880 512 L 806 512 L 806 465" stroke-miterlimit="10"/></g><g transform="translate(-150,-38) scale(1,1)"><path fill="#FFFFFF" stroke="none" d="M 814.419035512032 485.3253497152483 L 806 465 L 797.580964487968 485.3253497152483"/></g><g transform="translate(-150,-38) scale(1,1)"><path fill="none" stroke="#000000" d="M 814.419035512032 485.3253497152483 L 806 465 L 797.580964487968 485.3253497152483 L 814.419035512032 485.3253497152483" stroke-miterlimit="10"/></g><g transform="translate(-150,-38) scale(1,1)"><rect fill="#C0C0C0" stroke="none" x="1119" y="415" width="119.12451171875" height="70" opacity="0.2"/></g><g transform="translate(-150,-38) scale(1,1)"><rect fill="#d6adff" stroke="none" x="1112" y="408" width="119.12451171875" height="70"/></g><g transform="translate(-150,-38) scale(1,1)"><path fill="none" stroke="#000000" d="M 1112 408 L 1231.12451171875 408 L 1231.12451171875 478 L 1112 478 L 1112 408 Z Z" stroke-miterlimit="10"/></g><g transform="translate(-150,-38) scale(1,1)"><path fill="none" stroke="#000000" d="M 1112 433 L 1231.12451171875 433" stroke-miterlimit="10"/></g><g transform="translate(-150,-38) scale(1,1)"><path fill="none" stroke="#000000" d="M 1112 456 L 1231.12451171875 456" stroke-miterlimit="10"/></g><g transform="translate(-150,-38) scale(1,1)"><g><path fill="none" stroke="none"/><text fill="#000000" stroke="none" font-family="Arial" font-size="13px" font-style="normal" font-weight="bold" text-decoration="none" x="1143.013671875" y="427.5">Lingkaran</text></g></g><g transform="translate(-150,-38) scale(1,1)"><g><path fill="none" stroke="none"/><text fill="#000000" stroke="none" font-family="Arial" font-size="13px" font-style="normal" font-weight="normal" text-decoration="none" x="1117" y="450.5">#pI: double</text></g></g><g transform="translate(-150,-38) scale(1,1)"><g><path fill="none" stroke="none"/><text fill="#000000" stroke="none" font-family="Arial" font-size="13px" font-style="normal" font-weight="normal" text-decoration="none" x="1117" y="473.5">+getLuas(): double</text></g></g><g transform="translate(-150,-38) scale(1,1)"><path fill="none" stroke="#000000" d="M 1168 408 L 1168 328 L 728 328 L 728 294" stroke-miterlimit="10"/></g><g transform="translate(-150,-38) scale(1,1)"><path fill="#FFFFFF" stroke="none" d="M 736.419035512032 314.3253497152483 L 728 294 L 719.580964487968 314.3253497152483"/></g><g transform="translate(-150,-38) scale(1,1)"><path fill="none" stroke="#000000" d="M 736.419035512032 314.3253497152483 L 728 294 L 719.580964487968 314.3253497152483 L 736.419035512032 314.3253497152483" stroke-miterlimit="10"/></g><g transform="translate(-150,-38) scale(1,1)"><rect fill="#C0C0C0" stroke="none" x="967" y="543" width="133.66162109375" height="57" opacity="0.2"/></g><g transform="translate(-150,-38) scale(1,1)"><rect fill="#d6adff" stroke="none" x="960" y="536" width="133.66162109375" height="57"/></g><g transform="translate(-150,-38) scale(1,1)"><path fill="none" stroke="#000000" d="M 960 536 L 1093.66162109375 536 L 1093.66162109375 593 L 960 593 L 960 536 Z Z" stroke-miterlimit="10"/></g><g transform="translate(-150,-38) scale(1,1)"><path fill="none" stroke="#000000" d="M 960 561 L 1093.66162109375 561" stroke-miterlimit="10"/></g><g transform="translate(-150,-38) scale(1,1)"><path fill="none" stroke="#000000" d="M 960 571 L 1093.66162109375 571" stroke-miterlimit="10"/></g><g transform="translate(-150,-38) scale(1,1)"><g><path fill="none" stroke="none"/><text fill="#000000" stroke="none" font-family="Arial" font-size="13px" font-style="normal" font-weight="bold" text-decoration="none" x="1013.8212890625" y="555.5">Bola</text></g></g><g transform="translate(-150,-38) scale(1,1)"><g><path fill="none" stroke="none"/><text fill="#000000" stroke="none" font-family="Arial" font-size="13px" font-style="normal" font-weight="normal" text-decoration="none" x="965" y="588.5">+getVolume(): double</text></g></g><g transform="translate(-150,-38) scale(1,1)"><path fill="none" stroke="#000000" d="M 1024 536 L 1024 512 L 1169 512 L 1169 478" stroke-miterlimit="10"/></g><g transform="translate(-150,-38) scale(1,1)"><path fill="#FFFFFF" stroke="none" d="M 1177.419035512032 498.3253497152483 L 1169 478 L 1160.580964487968 498.3253497152483"/></g><g transform="translate(-150,-38) scale(1,1)"><path fill="none" stroke="#000000" d="M 1177.419035512032 498.3253497152483 L 1169 478 L 1160.580964487968 498.3253497152483 L 1177.419035512032 498.3253497152483" stroke-miterlimit="10"/></g><g transform="translate(-150,-38) scale(1,1)"><rect fill="#C0C0C0" stroke="none" x="1111" y="543" width="133.66162109375" height="57" opacity="0.2"/></g><g transform="translate(-150,-38) scale(1,1)"><rect fill="#d6adff" stroke="none" x="1104" y="536" width="133.66162109375" height="57"/></g><g transform="translate(-150,-38) scale(1,1)"><path fill="none" stroke="#000000" d="M 1104 536 L 1237.66162109375 536 L 1237.66162109375 593 L 1104 593 L 1104 536 Z Z" stroke-miterlimit="10"/></g><g transform="translate(-150,-38) scale(1,1)"><path fill="none" stroke="#000000" d="M 1104 561 L 1237.66162109375 561" stroke-miterlimit="10"/></g><g transform="translate(-150,-38) scale(1,1)"><path fill="none" stroke="#000000" d="M 1104 571 L 1237.66162109375 571" stroke-miterlimit="10"/></g><g transform="translate(-150,-38) scale(1,1)"><g><path fill="none" stroke="none"/><text fill="#000000" stroke="none" font-family="Arial" font-size="13px" font-style="normal" font-weight="bold" text-decoration="none" x="1148.785400390625" y="555.5">Tabung</text></g></g><g transform="translate(-150,-38) scale(1,1)"><g><path fill="none" stroke="none"/><text fill="#000000" stroke="none" font-family="Arial" font-size="13px" font-style="normal" font-weight="normal" text-decoration="none" x="1109" y="588.5">+getVolume(): double</text></g></g><g transform="translate(-150,-38) scale(1,1)"><path fill="none" stroke="#000000" d="M 1168 536 L 1168 478" stroke-miterlimit="10"/></g><g transform="translate(-150,-38) scale(1,1)"><path fill="#FFFFFF" stroke="none" d="M 1176.419035512032 498.3253497152483 L 1168 478 L 1159.580964487968 498.3253497152483"/></g><g transform="translate(-150,-38) scale(1,1)"><path fill="none" stroke="#000000" d="M 1176.419035512032 498.3253497152483 L 1168 478 L 1159.580964487968 498.3253497152483 L 1176.419035512032 498.3253497152483" stroke-miterlimit="10"/></g><g transform="translate(-150,-38) scale(1,1)"><rect fill="#C0C0C0" stroke="none" x="1255" y="543" width="133.66162109375" height="57" opacity="0.2"/></g><g transform="translate(-150,-38) scale(1,1)"><rect fill="#d6adff" stroke="none" x="1248" y="536" width="133.66162109375" height="57"/></g><g transform="translate(-150,-38) scale(1,1)"><path fill="none" stroke="#000000" d="M 1248 536 L 1381.66162109375 536 L 1381.66162109375 593 L 1248 593 L 1248 536 Z Z" stroke-miterlimit="10"/></g><g transform="translate(-150,-38) scale(1,1)"><path fill="none" stroke="#000000" d="M 1248 561 L 1381.66162109375 561" stroke-miterlimit="10"/></g><g transform="translate(-150,-38) scale(1,1)"><path fill="none" stroke="#000000" d="M 1248 571 L 1381.66162109375 571" stroke-miterlimit="10"/></g><g transform="translate(-150,-38) scale(1,1)"><g><path fill="none" stroke="none"/><text fill="#000000" stroke="none" font-family="Arial" font-size="13px" font-style="normal" font-weight="bold" text-decoration="none" x="1292.78857421875" y="555.5">Ketucut</text></g></g><g transform="translate(-150,-38) scale(1,1)"><g><path fill="none" stroke="none"/><text fill="#000000" stroke="none" font-family="Arial" font-size="13px" font-style="normal" font-weight="normal" text-decoration="none" x="1253" y="588.5">+getVolume(): double</text></g></g><g transform="translate(-150,-38) scale(1,1)"><path fill="none" stroke="#000000" d="M 1312 536 L 1312 512 L 1169 512 L 1169 478" stroke-miterlimit="10"/></g><g transform="translate(-150,-38) scale(1,1)"><path fill="#FFFFFF" stroke="none" d="M 1177.419035512032 498.3253497152483 L 1169 478 L 1160.580964487968 498.3253497152483"/></g><g transform="translate(-150,-38) scale(1,1)"><path fill="none" stroke="#000000" d="M 1177.419035512032 498.3253497152483 L 1169 478 L 1160.580964487968 498.3253497152483 L 1177.419035512032 498.3253497152483" stroke-miterlimit="10"/></g><g transform="translate(-150,-38) scale(1,1)"><rect fill="#C0C0C0" stroke="none" x="167" y="223" width="137.1962890625" height="57" opacity="0.2"/></g><g transform="translate(-150,-38) scale(1,1)"><rect fill="#c6c6c6" stroke="none" x="160" y="216" width="137.1962890625" height="57"/></g><g transform="translate(-150,-38) scale(1,1)"><path fill="none" stroke="#000000" d="M 160 216 L 297.1962890625 216 L 297.1962890625 273 L 160 273 L 160 216 Z Z" stroke-miterlimit="10"/></g><g transform="translate(-150,-38) scale(1,1)"><path fill="none" stroke="#000000" d="M 160 241 L 297.1962890625 241" stroke-miterlimit="10"/></g><g transform="translate(-150,-38) scale(1,1)"><path fill="none" stroke="#000000" d="M 160 251 L 297.1962890625 251" stroke-miterlimit="10"/></g><g transform="translate(-150,-38) scale(1,1)"><g><path fill="none" stroke="none"/><text fill="#000000" stroke="none" font-family="Arial" font-size="13px" font-style="normal" font-weight="bold" text-decoration="none" x="191.37548828125" y="235.5">Jajargenjang</text></g></g><g transform="translate(-150,-38) scale(1,1)"><g><path fill="none" stroke="none"/><text fill="#000000" stroke="none" font-family="Arial" font-size="13px" font-style="normal" font-weight="normal" text-decoration="none" x="165" y="268.5">+getLuas(): double</text></g></g><g transform="translate(-150,-38) scale(1,1)"><path fill="none" stroke="#000000" d="M 297 243 L 408 243 L 408 176 L 544 176" stroke-miterlimit="10"/></g><g transform="translate(-150,-38) scale(1,1)"><path fill="#FFFFFF" stroke="none" d="M 523.6746502847517 184.41903551203197 L 544 176 L 523.6746502847517 167.58096448796803"/></g><g transform="translate(-150,-38) scale(1,1)"><path fill="none" stroke="#000000" d="M 523.6746502847517 184.41903551203197 L 544 176 L 523.6746502847517 167.58096448796803 L 523.6746502847517 184.41903551203197" stroke-miterlimit="10"/></g><g transform="translate(-150,-38) scale(1,1)"><rect fill="#C0C0C0" stroke="none" x="167" y="71" width="136" height="57" opacity="0.2"/></g><g transform="translate(-150,-38) scale(1,1)"><rect fill="#ffd6ad" stroke="none" x="160" y="64" width="136" height="57"/></g><g transform="translate(-150,-38) scale(1,1)"><path fill="none" stroke="#000000" d="M 160 64 L 296 64 L 296 121 L 160 121 L 160 64 Z Z" stroke-miterlimit="10"/></g><g transform="translate(-150,-38) scale(1,1)"><path fill="none" stroke="#000000" d="M 160 89 L 296 89" stroke-miterlimit="10"/></g><g transform="translate(-150,-38) scale(1,1)"><path fill="none" stroke="#000000" d="M 160 99 L 296 99" stroke-miterlimit="10"/></g><g transform="translate(-150,-38) scale(1,1)"><g><path fill="none" stroke="none"/><text fill="#000000" stroke="none" font-family="Arial" font-size="13px" font-style="normal" font-weight="bold" text-decoration="none" x="197.29638671875" y="83.5">Trapesium</text></g></g><g transform="translate(-150,-38) scale(1,1)"><g><path fill="none" stroke="none"/><text fill="#000000" stroke="none" font-family="Arial" font-size="13px" font-style="normal" font-weight="normal" text-decoration="none" x="165" y="116.5">+getLuas(): double</text></g></g><g transform="translate(-150,-38) scale(1,1)"><path fill="none" stroke="#000000" d="M 296 96 L 408 96 L 408 176 L 544 176" stroke-miterlimit="10"/></g><g transform="translate(-150,-38) scale(1,1)"><path fill="#FFFFFF" stroke="none" d="M 523.6746502847517 184.41903551203197 L 544 176 L 523.6746502847517 167.58096448796803"/></g><g transform="translate(-150,-38) scale(1,1)"><path fill="none" stroke="#000000" d="M 523.6746502847517 184.41903551203197 L 544 176 L 523.6746502847517 167.58096448796803 L 523.6746502847517 184.41903551203197" stroke-miterlimit="10"/></g><g transform="translate(-150,-38) scale(1,1)"><rect fill="#C0C0C0" stroke="none" x="1175" y="79" width="117.7734375" height="57" opacity="0.2"/></g><g transform="translate(-150,-38) scale(1,1)"><rect fill="#91ffec" stroke="none" x="1168" y="72" width="117.7734375" height="57"/></g><g transform="translate(-150,-38) scale(1,1)"><path fill="none" stroke="#000000" d="M 1168 72 L 1285.7734375 72 L 1285.7734375 129 L 1168 129 L 1168 72 Z Z" stroke-miterlimit="10"/></g><g transform="translate(-150,-38) scale(1,1)"><path fill="none" stroke="#000000" d="M 1168 97 L 1285.7734375 97" stroke-miterlimit="10"/></g><g transform="translate(-150,-38) scale(1,1)"><path fill="none" stroke="#000000" d="M 1168 107 L 1285.7734375 107" stroke-miterlimit="10"/></g><g transform="translate(-150,-38) scale(1,1)"><g><path fill="none" stroke="none"/><text fill="#000000" stroke="none" font-family="Arial" font-size="13px" font-style="normal" font-weight="bold" text-decoration="none" x="1187.85498046875" y="91.5">BelahKetupat</text></g></g><g transform="translate(-150,-38) scale(1,1)"><g><path fill="none" stroke="none"/><text fill="#000000" stroke="none" font-family="Arial" font-size="13px" font-style="normal" font-weight="normal" text-decoration="none" x="1173" y="124.5">+getLuas(): double</text></g></g><g transform="translate(-150,-38) scale(1,1)"><path fill="none" stroke="#000000" d="M 1168 104 L 1072 104 L 1072 184 L 911 184" stroke-miterlimit="10"/></g><g transform="translate(-150,-38) scale(1,1)"><path fill="#FFFFFF" stroke="none" d="M 931.3253497152483 175.58096448796803 L 911 184 L 931.3253497152483 192.41903551203197"/></g><g transform="translate(-150,-38) scale(1,1)"><path fill="none" stroke="#000000" d="M 931.3253497152483 175.58096448796803 L 911 184 L 931.3253497152483 192.41903551203197 L 931.3253497152483 175.58096448796803" stroke-miterlimit="10"/></g><g transform="translate(-150,-38) scale(1,1)"><rect fill="#C0C0C0" stroke="none" x="1183" y="223" width="117.7734375" height="57" opacity="0.2"/></g><g transform="translate(-150,-38) scale(1,1)"><rect fill="#ffadd6" stroke="none" x="1176" y="216" width="117.7734375" height="57"/></g><g transform="translate(-150,-38) scale(1,1)"><path fill="none" stroke="#000000" d="M 1176 216 L 1293.7734375 216 L 1293.7734375 273 L 1176 273 L 1176 216 Z Z" stroke-miterlimit="10"/></g><g transform="translate(-150,-38) scale(1,1)"><path fill="none" stroke="#000000" d="M 1176 241 L 1293.7734375 241" stroke-miterlimit="10"/></g><g transform="translate(-150,-38) scale(1,1)"><path fill="none" stroke="#000000" d="M 1176 251 L 1293.7734375 251" stroke-miterlimit="10"/></g><g transform="translate(-150,-38) scale(1,1)"><g><path fill="none" stroke="none"/><text fill="#000000" stroke="none" font-family="Arial" font-size="13px" font-style="normal" font-weight="bold" text-decoration="none" x="1192.23681640625" y="235.5">LayangLayang</text></g></g><g transform="translate(-150,-38) scale(1,1)"><g><path fill="none" stroke="none"/><text fill="#000000" stroke="none" font-family="Arial" font-size="13px" font-style="normal" font-weight="normal" text-decoration="none" x="1181" y="268.5">+getLuas(): double</text></g></g><g transform="translate(-150,-38) scale(1,1)"><path fill="none" stroke="#000000" d="M 1176 248 L 1072 248 L 1072 184 L 911 184" stroke-miterlimit="10"/></g><g transform="translate(-150,-38) scale(1,1)"><path fill="#FFFFFF" stroke="none" d="M 931.3253497152483 175.58096448796803 L 911 184 L 931.3253497152483 192.41903551203197"/></g><g transform="translate(-150,-38) scale(1,1)"><path fill="none" stroke="#000000" d="M 931.3253497152483 175.58096448796803 L 911 184 L 931.3253497152483 192.41903551203197 L 931.3253497152483 175.58096448796803" stroke-miterlimit="10"/></g><g transform="translate(-150,-38) scale(1,1)"><rect fill="#C0C0C0" stroke="none" x="1399" y="95" width="208" height="205" opacity="0.2"/></g><g transform="translate(-150,-38) scale(1,1)"><rect fill="#ffd456" stroke="none" x="1392" y="88" width="208" height="205"/></g><g transform="translate(-150,-38) scale(1,1)"><path fill="none" stroke="#000000" d="M 1392 88 L 1600 88 L 1600 293 L 1392 293 L 1392 88 Z Z" stroke-miterlimit="10"/></g><g transform="translate(-150,-38) scale(1,1)"><path fill="none" stroke="#000000" d="M 1392 116 L 1600 116" stroke-miterlimit="10"/></g><g transform="translate(-150,-38) scale(1,1)"><path fill="none" stroke="#000000" d="M 1392 214 L 1600 214" stroke-miterlimit="10"/></g><g transform="translate(-150,-38) scale(1,1)"><g><path fill="none" stroke="none"/><text fill="#000000" stroke="none" font-family="Arial" font-size="16px" font-style="normal" font-weight="bold" text-decoration="none" x="1478.66015625" y="110.5">Main</text></g></g><g transform="translate(-150,-38) scale(1,1)"><g><path fill="none" stroke="none"/><text fill="#000000" stroke="none" font-family="Arial" font-size="16px" font-style="normal" font-weight="normal" text-decoration="none" x="1397" y="136.5">+inp: Scanner</text></g></g><g transform="translate(-150,-38) scale(1,1)"><g><path fill="none" stroke="none"/><text fill="#000000" stroke="none" font-family="Arial" font-size="16px" font-style="normal" font-weight="normal" text-decoration="none" x="1397" y="154.5">+jalankan: Boolean</text></g></g><g transform="translate(-150,-38) scale(1,1)"><g><path fill="none" stroke="none"/><text fill="#000000" stroke="none" font-family="Arial" font-size="16px" font-style="normal" font-weight="normal" text-decoration="none" x="1397" y="172.5">+nilaiA: double</text></g></g><g transform="translate(-150,-38) scale(1,1)"><g><path fill="none" stroke="none"/><text fill="#000000" stroke="none" font-family="Arial" font-size="16px" font-style="normal" font-weight="normal" text-decoration="none" x="1397" y="190.5">+nilaiB: double</text></g></g><g transform="translate(-150,-38) scale(1,1)"><g><path fill="none" stroke="none"/><text fill="#000000" stroke="none" font-family="Arial" font-size="16px" font-style="normal" font-weight="normal" text-decoration="none" x="1397" y="208.5">+nilaiC: double</text></g></g><g transform="translate(-150,-38) scale(1,1)"><g><path fill="none" stroke="none"/><text fill="#000000" stroke="none" font-family="Arial" font-size="16px" font-style="normal" font-weight="normal" text-decoration="none" x="1397" y="234.5">+main(String[] args): void</text></g></g><g transform="translate(-150,-38) scale(1,1)"><g><path fill="none" stroke="none"/><text fill="#000000" stroke="none" font-family="Arial" font-size="16px" font-style="normal" font-weight="normal" text-decoration="none" x="1397" y="252.5">+akhiriProgram(): Boolean</text></g></g><g transform="translate(-150,-38) scale(1,1)"><g><path fill="none" stroke="none"/><text fill="#000000" stroke="none" font-family="Arial" font-size="16px" font-style="normal" font-weight="normal" text-decoration="none" x="1397" y="270.5">+bangunDatar(): Bangun</text></g></g><g transform="translate(-150,-38) scale(1,1)"><g><path fill="none" stroke="none"/><text fill="#000000" stroke="none" font-family="Arial" font-size="16px" font-style="normal" font-weight="normal" text-decoration="none" x="1397" y="288.5">+bangunRuang(): Bangun</text></g></g></g></svg>